<svg xmlns="http://www.w3.org/2000/svg" xmlns:xlink="http://www.w3.org/1999/xlink" width="342" height="425" viewBox="0 0 342 425">
  <defs>
    <linearGradient id="linear-gradient" x1="0.5" x2="0.5" y2="1" gradientUnits="objectBoundingBox">
      <stop offset="0" stop-color="#c1272d"/>
      <stop offset="1" stop-color="#8d0005"/>
    </linearGradient>
  </defs>
  <g id="Group_877" data-name="Group 877" transform="translate(-36 -111)">
    <rect id="Rectangle_1561" data-name="Rectangle 1561" width="342" height="425" rx="23" transform="translate(36 111)" fill="url(#linear-gradient)"/>
    <path id="Intersection_1" data-name="Intersection 1" d="M-762.285,221.7l42.625-29.847,5.287,54.075,14.531-14.625,16.816,7.26-6.627-67.721L-618.261,272.8l-72.631,50.857Zm81.119-55.825,60.664,29.132-1.206-18.415,6.708-3.18v86.958Zm-127.3,15.649,44.4-31.091c-8.9,1.225-16.519.436-22.814-2.182a26.809,26.809,0,0,1-11.8-9.4c-4.712-6.791-8.21-18.464-6.675-25.812A30.67,30.67,0,0,1-793.17,94.037a39.339,39.339,0,0,1,22.03-6.793A63.759,63.759,0,0,1-748.1,91.369c4.294,1.584,10.91,7.02,14.884,9.266-.081-.576-.155-1.157-.239-1.751-1.716-11.839-3.559-27.642.641-38.474a39.48,39.48,0,0,1,13.947-18.4,30.267,30.267,0,0,1,20.592-5.368c7.011.732,16.37,7.711,20.809,14.051,5.426,7.717,6.322,18.692,2.047,30.843a72.267,72.267,0,0,1-4.36,9.884l48.231-33.772L-615,81.134v25.352L-686.432,156.5l-28.391-40.546-10.16,7.114,28.391,40.546L-779.972,222Zm37.679-79.088a24.718,24.718,0,0,0-13.668,4.048l-.086.06a15.654,15.654,0,0,0-5.9,9.556c-.846,3.938,1.145,9.675,3.083,12.382,1.143,1.633,3.882,4.67,6.379,5.74a25.266,25.266,0,0,0,10.916,1.516c9.025-.433,22.4-4.307,40.307-14.273a67.434,67.434,0,0,0-12.206-8.289c-8.523-4.633-20.362-10.746-28.407-10.746C-770.507,102.431-770.646,102.433-770.785,102.437Zm60.667-48-.035.025a24.582,24.582,0,0,0-8.48,11.46c-1.959,5.028-.528,14.62-.517,21.037a69.569,69.569,0,0,0,4.762,25.071C-700.251,97.347-692.8,85.3-689.8,76.528c3.158-9.257.126-16.635-1.77-19.435-1.643-2.345-5.062-4.917-8.366-5.316a13.245,13.245,0,0,0-1.509-.085A15.374,15.374,0,0,0-710.118,54.435Zm58.132,90.034,36.986-25.9v43.542Z" transform="translate(993 111)" fill="#fff"/>
  </g>
</svg>
