<svg id="logout_1_" data-name="logout (1)" xmlns="http://www.w3.org/2000/svg" width="21.24" height="21.24" viewBox="0 0 21.24 21.24">
  <g id="Group_10" data-name="Group 10">
    <g id="Group_9" data-name="Group 9">
      <path id="Path_4" data-name="Path 4" d="M2.36,0H18.88a2.359,2.359,0,0,1,2.36,2.36V7.08H18.88V2.36H2.36V18.88H18.88V14.16h2.36v4.72a2.359,2.359,0,0,1-2.36,2.36H2.36A2.359,2.359,0,0,1,0,18.88V2.36A2.359,2.359,0,0,1,2.36,0Z" fill="#fff"/>
      <path id="Path_5" data-name="Path 5" d="M7.57,95.463,5.9,97.133,0,91.233l5.9-5.9L7.57,87l-3.05,3.05H15.93v2.36H4.519Z" transform="translate(5.31 -80.613)" fill="#fff"/>
    </g>
  </g>
</svg>
