<?xml version="1.0" encoding="utf-8"?>
<!-- Generator: Adobe Illustrator 24.0.1, SVG Export Plug-In . SVG Version: 6.00 Build 0)  -->
<svg version="1.1" id="Layer_1" xmlns="http://www.w3.org/2000/svg" xmlns:xlink="http://www.w3.org/1999/xlink" x="0px" y="0px"
	 viewBox="0 0 282 74" style="enable-background:new 0 0 282 74;" xml:space="preserve">
<style type="text/css">
	.st0{fill:#FFFFFF;}
	.st1{enable-background:new    ;}
	.st2{fill:#C1272D;}
	.st3{fill:#2E3192;}
</style>
<g id="Rectangle_2">
	<path class="st0" d="M5,0h272c2.8,0,5,2.2,5,5v64c0,2.8-2.2,5-5,5H5c-2.8,0-5-2.2-5-5V5C0,2.2,2.2,0,5,0z"/>
</g>
<g class="st1">
	<path class="st2" d="M38.5,28.2c1.8,1.4,3,3.3,3.4,5.6h-5.8c-0.4-0.8-1-1.5-1.8-1.9c-0.8-0.5-1.7-0.7-2.8-0.7
		c-1.7,0-3.1,0.6-4.2,1.7c-1,1.2-1.6,2.7-1.6,4.7c0,2.2,0.5,3.8,1.6,5c1.1,1.2,2.7,1.7,4.7,1.7c1.3,0,2.4-0.4,3.4-1.1
		c1-0.7,1.7-1.7,2.1-3.1h-6.9v-3.9h11.5v5.4c-0.4,1.3-1.1,2.5-2,3.7c-0.9,1.1-2.1,2-3.6,2.8s-3.1,1.1-5,1.1c-2.3,0-4.3-0.5-6-1.5
		c-1.7-1-3-2.3-4-4.1c-0.9-1.7-1.4-3.7-1.4-6s0.5-4.2,1.4-6c0.9-1.7,2.2-3.1,3.9-4.1c1.7-1,3.7-1.5,5.9-1.5
		C34.3,26.2,36.7,26.8,38.5,28.2z"/>
	<path class="st2" d="M51.8,31.9c1.1-0.6,2.2-1,3.5-1v5.9h-1.6c-1.5,0-2.6,0.3-3.4,0.9c-0.8,0.6-1.2,1.7-1.2,3.1V49h-5.5V31.1h5.5
		v3.4C49.8,33.4,50.7,32.6,51.8,31.9z"/>
	<path class="st2" d="M66.3,31.8c1,0.6,1.7,1.5,2.2,2.5v-3.2h5.4V49h-5.4v-3.2c-0.5,1.1-1.2,1.9-2.2,2.5c-1,0.6-2.2,0.9-3.5,0.9
		c-1.5,0-2.8-0.4-4-1.1c-1.2-0.7-2.1-1.8-2.8-3.2c-0.7-1.4-1-3-1-4.9c0-1.9,0.3-3.5,1-4.9c0.7-1.4,1.6-2.4,2.8-3.2
		c1.2-0.7,2.5-1.1,4-1.1C64.1,30.9,65.3,31.2,66.3,31.8z M61.7,36.9c-0.7,0.8-1.1,1.8-1.1,3.2s0.4,2.4,1.1,3.2
		c0.7,0.8,1.7,1.2,2.8,1.2c1.2,0,2.1-0.4,2.8-1.2c0.7-0.8,1.1-1.8,1.1-3.2c0-1.3-0.4-2.4-1.1-3.2c-0.7-0.8-1.7-1.2-2.8-1.2
		C63.4,35.7,62.4,36.1,61.7,36.9z"/>
	<path class="st2" d="M92.3,33c1.2,1.4,1.8,3.2,1.8,5.6V49h-5.5v-9.7c0-1.2-0.3-2.1-0.9-2.8s-1.5-1-2.5-1c-1.1,0-2,0.4-2.6,1.1
		c-0.7,0.7-1,1.7-1,3V49h-5.5V31.1h5.5v3.3c0.5-1.1,1.3-1.9,2.3-2.5c1-0.6,2.2-0.9,3.6-0.9C89.5,31,91.1,31.6,92.3,33z"/>
	<path class="st2" d="M106.4,31.8c1,0.6,1.7,1.5,2.1,2.5v-9.1h5.5V49h-5.5v-3.2c-0.4,1.1-1.2,1.9-2.1,2.5c-1,0.6-2.2,0.9-3.5,0.9
		c-1.5,0-2.8-0.4-4-1.1c-1.2-0.7-2.1-1.8-2.8-3.2c-0.7-1.4-1-3-1-4.9c0-1.9,0.3-3.5,1-4.9c0.7-1.4,1.6-2.4,2.8-3.2
		c1.2-0.7,2.5-1.1,4-1.1C104.3,30.9,105.4,31.2,106.4,31.8z M101.8,36.9c-0.7,0.8-1.1,1.8-1.1,3.2s0.4,2.4,1.1,3.2
		c0.7,0.8,1.7,1.2,2.8,1.2c1.2,0,2.1-0.4,2.8-1.2c0.7-0.8,1.1-1.8,1.1-3.2c0-1.3-0.4-2.4-1.1-3.2c-0.7-0.8-1.7-1.2-2.8-1.2
		C103.5,35.7,102.5,36.1,101.8,36.9z"/>
</g>
<g class="st1">
	<path class="st2" d="M169.9,45.9c-0.6,1-1.5,1.8-2.7,2.4c-1.2,0.6-2.6,0.9-4.3,0.9c-2.5,0-4.6-0.6-6.3-1.9s-2.5-3-2.7-5.2h5.8
		c0.1,0.9,0.4,1.5,0.9,2c0.5,0.5,1.2,0.7,2,0.7c0.7,0,1.3-0.2,1.7-0.6c0.4-0.4,0.6-0.9,0.6-1.5c0-0.6-0.2-1.1-0.6-1.4
		s-0.8-0.7-1.4-0.9c-0.6-0.2-1.3-0.5-2.3-0.9c-1.4-0.5-2.6-1-3.5-1.4c-0.9-0.5-1.7-1.1-2.3-2c-0.7-0.9-1-2.1-1-3.5
		c0-1.3,0.3-2.5,1-3.5c0.7-1,1.6-1.7,2.8-2.3c1.2-0.5,2.6-0.8,4.1-0.8c2.5,0,4.5,0.6,6,1.8c1.5,1.2,2.3,2.8,2.5,4.9h-5.9
		c-0.1-0.7-0.4-1.3-0.8-1.8c-0.4-0.4-1-0.7-1.8-0.7c-0.6,0-1.2,0.2-1.6,0.5c-0.4,0.3-0.6,0.8-0.6,1.5c0,0.5,0.2,1,0.5,1.4
		c0.4,0.4,0.8,0.7,1.3,0.9c0.5,0.2,1.3,0.5,2.3,0.9c1.5,0.5,2.6,1,3.6,1.5c0.9,0.5,1.7,1.2,2.4,2.1c0.7,0.9,1,2.1,1,3.6
		C170.8,43.8,170.5,44.9,169.9,45.9z"/>
	<path class="st2" d="M184.8,33.7v-2.6h5.4v26.4h-5.4V46.1c-1.2,2-3,3.1-5.3,3.1c-1.5,0-2.9-0.4-4.1-1.1c-1.2-0.8-2.2-1.8-2.9-3.2
		s-1.1-2.9-1.1-4.7c0-1.8,0.4-3.4,1.1-4.8s1.7-2.5,2.9-3.3c1.2-0.8,2.6-1.2,4.1-1.2C181.8,31,183.6,31.9,184.8,33.7z M178.1,36.9
		c-0.8,0.8-1.2,1.9-1.2,3.3c0,1.4,0.4,2.5,1.1,3.2c0.8,0.7,1.7,1.1,2.8,1.1c1.1,0,2-0.4,2.8-1.1c0.8-0.8,1.2-1.8,1.2-3.2
		s-0.4-2.5-1.2-3.2c-0.8-0.7-1.7-1.1-2.8-1.1C179.8,35.8,178.8,36.1,178.1,36.9z"/>
	<path class="st2" d="M210.1,31.1V49h-5.5v-3.2c-0.5,1-1.3,1.9-2.3,2.5c-1,0.6-2.2,0.9-3.5,0.9c-2,0-3.7-0.7-4.9-2
		c-1.2-1.4-1.8-3.2-1.8-5.6V31.1h5.4v9.7c0,1.2,0.3,2.2,0.9,2.8c0.6,0.7,1.5,1,2.5,1c1.1,0,2-0.4,2.6-1.1c0.6-0.7,1-1.7,1-3v-9.5
		H210.1z"/>
	<path class="st2" d="M222.6,31.8c1,0.6,1.7,1.5,2.2,2.5v-3.2h5.4V49h-5.4v-3.2c-0.5,1.1-1.2,1.9-2.2,2.5c-1,0.6-2.2,0.9-3.5,0.9
		c-1.5,0-2.8-0.4-4-1.1c-1.2-0.7-2.1-1.8-2.8-3.2c-0.7-1.4-1-3-1-4.9c0-1.9,0.3-3.5,1-4.9s1.6-2.4,2.8-3.2c1.2-0.7,2.5-1.1,4-1.1
		C220.5,30.9,221.6,31.2,222.6,31.8z M218,36.9c-0.7,0.8-1.1,1.8-1.1,3.2s0.4,2.4,1.1,3.2c0.7,0.8,1.7,1.2,2.8,1.2
		c1.2,0,2.1-0.4,2.8-1.2s1.1-1.8,1.1-3.2c0-1.3-0.4-2.4-1.1-3.2c-0.7-0.8-1.7-1.2-2.8-1.2C219.7,35.7,218.7,36.1,218,36.9z"/>
	<path class="st2" d="M240.5,31.9c1.1-0.6,2.2-1,3.5-1v5.9h-1.6c-1.5,0-2.6,0.3-3.4,0.9s-1.2,1.7-1.2,3.1V49h-5.5V31.1h5.5v3.4
		C238.6,33.4,239.4,32.6,240.5,31.9z"/>
	<path class="st2" d="M261.5,41.1h-12.4c0.1,1.3,0.4,2.3,1,2.9c0.6,0.6,1.4,0.9,2.4,0.9c0.8,0,1.5-0.2,2-0.6s0.9-0.9,1.1-1.6h5.8
		c-0.2,1.3-0.7,2.4-1.5,3.4c-0.8,1-1.8,1.8-3,2.3c-1.2,0.6-2.6,0.8-4.1,0.8c-1.7,0-3.3-0.4-4.7-1.1s-2.4-1.8-3.2-3.2
		c-0.8-1.4-1.2-3-1.2-4.9c0-1.9,0.4-3.5,1.1-4.9c0.8-1.4,1.8-2.4,3.2-3.2c1.4-0.7,2.9-1.1,4.7-1.1c1.8,0,3.3,0.4,4.7,1.1
		c1.3,0.7,2.4,1.7,3.1,3.1c0.7,1.3,1.1,2.8,1.1,4.5C261.7,40,261.6,40.5,261.5,41.1z M255.2,36.1c-0.7-0.6-1.5-0.9-2.4-0.9
		c-1,0-1.8,0.3-2.5,0.9c-0.7,0.6-1,1.5-1.1,2.6h7C256.2,37.6,255.9,36.7,255.2,36.1z"/>
</g>
<g id="Rectangle_1">
	
		<rect x="124.2" y="28.6" transform="matrix(0.7071 -0.7071 0.7071 0.7071 11.7336 106.8275)" class="st3" width="21.3" height="21.3"/>
</g>
</svg>
