<svg id="shopping-bag" xmlns="http://www.w3.org/2000/svg" width="18.548" height="21.64" viewBox="0 0 18.548 21.64">
  <g id="Group_71" data-name="Group 71">
    <path id="Path_25" data-name="Path 25" d="M48.488,5.152H46.427a5.152,5.152,0,1,0-10.3,0H34.062a2.052,2.052,0,0,0-2.051,2.061L32,19.579a2.06,2.06,0,0,0,2.061,2.061H48.488a2.06,2.06,0,0,0,2.061-2.061V7.213A2.06,2.06,0,0,0,48.488,5.152ZM41.275,2.061a3.094,3.094,0,0,1,3.091,3.091H38.184A3.094,3.094,0,0,1,41.275,2.061Zm0,10.3a5.154,5.154,0,0,1-5.152-5.152h2.061a3.091,3.091,0,0,0,6.183,0h2.061A5.154,5.154,0,0,1,41.275,12.365Z" transform="translate(-32.001 0)" fill="#fff"/>
  </g>
</svg>
