<svg xmlns="http://www.w3.org/2000/svg" width="18.517" height="24.303" viewBox="0 0 18.517 24.303">
  <g id="locked-padlock" transform="translate(0)">
    <g id="lock" transform="translate(0)">
      <path id="Path_3" data-name="Path 3" d="M79.952,8.1H78.795V5.786a5.786,5.786,0,1,0-11.573,0V8.1H66.065a2.321,2.321,0,0,0-2.315,2.315V21.989A2.321,2.321,0,0,0,66.065,24.3H79.952a2.321,2.321,0,0,0,2.315-2.315V10.416A2.321,2.321,0,0,0,79.952,8.1ZM73.008,18.517A2.315,2.315,0,1,1,75.323,16.2,2.321,2.321,0,0,1,73.008,18.517ZM76.6,8.1H69.421V5.786a3.588,3.588,0,1,1,7.175,0Z" transform="translate(-63.75)" fill="#fff"/>
    </g>
  </g>
</svg>
